# xmcd
#
# Track frame offsets:
#       150
#       24786
#       46770
#       75076
#       98388
#       116362
#
# Disc length: 1792 seconds
#
# Revision: 0
# Processed by: cddbd v1.5.2PL0 Copyright (c) Steve Scherf et al.
# Submitted via: WaveLab 4.01
#
DISCID=2706fe06
DTITLE=DANNYEL VIANA - PROJETO TERRA FERTIL
DYEAR=1900
DGENRE=
TTITLE0=EU CORREREI
TTITLE1=LIVRE
TTITLE2=RESTAURA-ME
TTITLE3=TOMA O TEU LUGAR
TTITLE4=CORDEIRO FIEL
TTITLE5=GRACAS TE DOU
EXTD=
EXTT0=
EXTT1=
EXTT2=
EXTT3=
EXTT4=
EXTT5=
PLAYORDER=
